<?xml version="1.0" standalone="no"?>
<!DOCTYPE svg PUBLIC "-//W3C//DTD SVG 1.1//EN" "http://www.w3.org/Graphics/SVG/1.1/DTD/svg11.dtd" >
<!--
2013-9-30: Created.
-->
<svg>
<metadata>
Created by iconfont
</metadata>
<defs>

<font id="iconfont" horiz-adv-x="1024" >
  <font-face
    font-family="iconfont"
    font-weight="500"
    font-stretch="normal"
    units-per-em="1024"
    ascent="896"
    descent="-128"
  />
    <missing-glyph />
    
    <glyph glyph-name="eth_logo01" unicode="&#58948;" d="M566.954667 896C819.342222 896 1023.943111 694.186667 1024 445.184c0-185.287111-113.379556-344.405333-275.399111-413.696l-8.903111-3.669333V-99.555556a28.444444 28.444444 0 1 0-56.888889 0v165.745778l35.640889 14.364445C867.669333 140.714667 967.111111 283.932444 967.111111 445.184 967.111111 662.556444 788.081778 839.111111 566.954667 839.111111 372.565333 839.111111 207.815111 701.781333 173.425778 516.579556l-1.564445-8.988445-1.649777-10.268444-106.353778-185.059556h114.972444v-293.575111c0-28.586667 26.453333-50.346667 55.296-45.909333l3.925334 0.768 5.461333 0.995555 147.342222 20.110222V-99.555556a28.444444 28.444444 0 0 0-56.888889 0v29.041778l-82.773333-11.292444c-64.085333-15.189333-125.781333 31.032889-129.109333 95.118222l-0.142223 5.376v236.686222H48.156444c-35.527111 0-58.311111 36.465778-43.633777 67.441778l1.792 3.413333 109.397333 190.435556C150.414222 731.676444 339.2 896 566.954667 896z m-150.983111-512a74.638222 74.638222 0 1 0 0-149.276444 74.638222 74.638222 0 0 0 0 149.276444z m-29.582223-62.378667a32.056889 32.056889 0 1 1 59.249778-24.547555 32.056889 32.056889 0 0 1-59.249778 24.547555zM703.943111 327.111111a21.333333 21.333333 0 0 0 2.901333-42.439111l-2.901333-0.199111h-170.666667a21.333333 21.333333 0 0 0-2.844444 42.439111l2.844444 0.199111h170.666667z m-210.090667 270.307556a21.333333 21.333333 0 0 0 2.133334-27.648l-1.991111-2.389334-85.333334-85.333333a21.333333 21.333333 0 0 0-27.591111-2.190222l-2.616889 2.190222-42.666666 42.666667a21.304889 21.304889 0 0 0 27.704889 32.256l2.474666-2.133334 27.591111-27.591111 70.257778 70.257778a21.304889 21.304889 0 0 0 30.037333-0.085333z m219.676445-36.209778a21.304889 21.304889 0 0 0 2.901333-42.439111l-2.901333-0.199111h-170.666667a21.333333 21.333333 0 0 0-2.844444 42.439111l2.844444 0.199111h170.666667z"  horiz-adv-x="1024" />

    
    <glyph glyph-name="nobind" unicode="&#58933;" d="M190.179556 705.820444a56.888889 56.888889 0 0 0 80.440888 0l563.2-563.2a56.888889 56.888889 0 0 0-80.440888-80.440888l-563.2 563.2a56.888889 56.888889 0 0 0 0 80.440888z m0-241.379555l160.938666-160.881778-80.497778-80.440889a56.888889 56.888889 0 0 1 75.491556-84.878222l5.006222 4.380444 80.440889 80.497778 160.881778-160.938666L512-18.204443999999967A284.444444 284.444444 0 0 0 109.738667 384l80.440889 80.440889zM512 786.261333A284.444444 284.444444 0 0 0 914.261333 384l-80.440889-80.440889-160.938666 160.881778 80.497778 80.440889a56.888889 56.888889 0 0 1-80.497778 80.497778l-80.440889-80.497778-160.881778 160.938666L512 786.204444z"  horiz-adv-x="1024" />

    
    <glyph glyph-name="model_close" unicode="&#58932;" d="M810.667 622.507l-60.16 60.16L512 444.16 273.493 682.667l-60.16-60.16L451.84 384 213.333 145.493l60.16-60.16L512 323.84l238.507-238.507 60.16 60.16L572.16 384z"  horiz-adv-x="1024" />

    
    <glyph glyph-name="tuichu" unicode="&#58882;" d="M768 456.533333l-89.6 89.6c-12.8 12.8-29.866667 12.8-38.4 0-12.8-12.8-12.8-29.866667 0-38.4l89.6-89.6c4.266667-4.266667 4.266667-8.533333 8.533333-12.8h-302.933333c-17.066667 0-25.6-12.8-25.6-25.6s12.8-25.6 25.6-25.6h302.933333c-4.266667-8.533333-8.533333-12.8-12.8-12.8l-89.6-89.6c-12.8-12.8-12.8-29.866667 0-38.4 4.266667-4.266667 12.8-8.533333 21.333334-8.533333s12.8 4.266667 21.333333 8.533333l89.6 85.333334c42.666667 46.933333 42.666667 115.2 0 157.866666zM558.933333 72.533333H358.4c-42.666667 0-76.8 34.133333-76.8 76.8V605.866667c0 42.666667 34.133333 76.8 76.8 76.8h200.533333c17.066667 0 29.866667 12.8 29.866667 25.6s-12.8 25.6-29.866667 25.6H358.4c-34.133333 4.266667-68.266667-8.533333-93.866667-34.133334-25.6-25.6-38.4-55.466667-38.4-93.866666v-456.533334c0-72.533333 59.733333-132.266667 132.266667-132.266666h200.533333c17.066667 0 29.866667 12.8 29.866667 29.866666s-17.066667 25.6-29.866667 25.6z"  horiz-adv-x="1024" />

    
    <glyph glyph-name="bio_logo" unicode="&#58931;" d="M363.128471 896c53.308235 0 99.207529-33.460706 99.207529-81.076706 0-7.469176 13.251765-17.106824 34.002824-17.106823H951.717647c72.975059 0 132.517647-58.518588 132.517647-130.168471V1.2047059999999874C1082.006588-70.17411800000002 1022.494118-128 950.061176-128H132.517647C59.542588-128 0-69.48141199999998 0 2.168470999999954V765.831529C0 837.481412 59.542588 896 132.517647 896z m0-64H132.517647c-36.924235 0-67.312941-29.816471-67.312941-66.168471v-763.663058c0-36.321882 30.388706-66.168471 67.312941-66.168471h817.543529c36.924235 0 67.824941 30.027294 68.969412 66.168471V667.648c0 36.321882-30.388706 66.168471-67.312941 66.168471H496.338824c-53.308235 0-99.207529 33.460706-99.20753 81.106823 0 7.439059-13.251765 17.076706-34.002823 17.076706zM749.537882 624.941176c22.528 0 40.779294-18.251294 40.779294-40.749176v-81.528471c0-22.528-18.251294-40.779294-40.779294-40.779294l-2.740706 0.030118 0.030118-276.660706c0-92.340706-87.642353-167.183059-195.764706-167.183059-105.110588 0-190.885647 70.746353-195.553882 159.533177l-0.210824 7.649882-0.030117 276.660706h-13.342118A40.749176 40.749176 0 0 0 301.176471 502.663529v81.528471C301.176471 606.689882 319.427765 624.941176 341.925647 624.941176h407.612235z m-61.04847-163.026823h-274.883765v-54.814118h66.349177c13.703529 0 24.786824-13.492706 24.786823-30.117647 0-15.239529-9.336471-27.858824-21.413647-29.846588l-3.373176-0.301176-66.349177 0.030117v-60.235294h66.349177c13.703529 0 24.786824-13.492706 24.786823-30.117647 0-15.239529-9.336471-27.858824-21.413647-29.846588l-3.373176-0.301177-66.349177 0.030118v-41.140706c0-64.843294 61.530353-117.398588 137.456941-117.398588 73.306353 0 133.180235 49.001412 137.246118 110.742588l0.210823 6.625882-0.030117 276.690824z m-44.333177-228.592941c25.389176-25.419294 16.474353-69.993412-14.426353-100.894118-30.900706-30.900706-75.474824-39.815529-100.894117-14.396235-25.389176 25.389176-16.474353 69.963294 14.45647 100.894117 30.870588 30.870588 75.444706 39.785412 100.864 14.396236z m-72.071529-43.248941c-16.865882-16.865882-20.841412-36.803765-14.396235-43.218824 6.415059-6.445176 26.352941-2.469647 43.218823 14.396235 16.865882 16.865882 20.841412 36.803765 14.426353 43.248942-6.445176 6.415059-26.383059 2.439529-43.248941-14.426353z m161.129412 377.795764h-374.964706v-48.911059h374.964706v48.911059z"  horiz-adv-x="1084" />

    
    <glyph glyph-name="shape" unicode="&#58918;" d="M905.844907 773.567663 846.864512 773.567663 846.864512 714.587273 905.844907 714.587273 905.844907 773.567663 905.844907 773.567663ZM1023.805696 891.528448 728.903744 891.528448 728.903744 596.626487 1023.805696 596.626487 1023.805696 891.528448 1023.805696 891.528448ZM964.825301 655.60688 787.884117 655.60688 787.884117 832.548055 964.825301 832.548055 964.825301 655.60688 964.825301 655.60688ZM139.099819 714.587273 198.080213 714.587273 198.080213 773.567663 139.099819 773.567663 139.099819 714.587273 139.099819 714.587273ZM21.139029 596.626487 316.040981 596.626487 316.040981 891.528448 21.139029 891.528448 21.139029 596.626487 21.139029 596.626487ZM80.119424 832.548055 257.060608 832.548055 257.060608 655.60688 80.119424 655.60688 80.119424 832.548055 80.119424 832.548055ZM905.844907 65.802957 846.864512 65.802957 846.864512 6.822566 905.844907 6.822566 905.844907 65.802957 905.844907 65.802957ZM1023.805696 183.763742 728.903744 183.763742 728.903744-111.138219 1023.805696-111.138219 1023.805696 183.763742 1023.805696 183.763742ZM964.825301-52.157826 787.884117-52.157826 787.884117 124.783349 964.825301 124.783349 964.825301-52.157826 964.825301-52.157826ZM551.96256 714.587273 610.942955 714.587273 610.942955 773.567663 669.923349 773.567663 669.923349 832.548055 610.942955 832.548055 610.942955 891.528448 434.001771 891.528448 434.001771 832.548055 551.96256 832.548055 551.96256 773.567663 492.982165 773.567663 492.982165 655.60688 551.96256 655.60688 551.96256 714.587273 551.96256 714.587273ZM492.982165 655.60688 434.001771 655.60688 434.001771 596.626487 492.982165 596.626487 492.982165 655.60688 492.982165 655.60688ZM375.021376 714.587273 375.021376 655.60688 434.001771 655.60688 434.001771 714.587273 375.021376 714.587273 375.021376 714.587273ZM375.021376 773.567663 434.001771 773.567663 434.001771 832.548055 375.021376 832.548055 375.021376 773.567663 375.021376 773.567663ZM257.060608 478.665702 198.080213 478.665702 198.080213 419.68531 257.060608 419.68531 257.060608 478.665702 257.060608 478.665702ZM492.982165 537.646095 492.982165 478.665702 669.923349 478.665702 669.923349 537.646095 610.942955 537.646095 610.942955 655.60688 551.96256 655.60688 551.96256 537.646095 492.982165 537.646095 492.982165 537.646095ZM434.001771 596.626487 375.021376 596.626487 375.021376 478.665702 434.001771 478.665702 434.001771 596.626487 434.001771 596.626487ZM316.040981 537.646095 257.060608 537.646095 257.060608 478.665702 316.040981 478.665702 316.040981 537.646095 316.040981 537.646095ZM80.119424 537.646095 80.119424 478.665702 198.080213 478.665702 198.080213 537.646095 80.119424 537.646095 80.119424 537.646095ZM375.021376 419.68531 375.021376 478.665702 316.040981 478.665702 316.040981 419.68531 375.021376 419.68531 375.021376 419.68531ZM257.060608 360.704919 316.040981 360.704919 316.040981 419.68531 257.060608 419.68531 257.060608 360.704919 257.060608 360.704919ZM21.139029 419.68531 80.119424 419.68531 80.119424 478.665702 21.139029 478.665702 21.139029 419.68531 21.139029 419.68531ZM21.139029 360.704919 21.139029 301.724527 80.119424 301.724527 80.119424 360.704919 21.139029 360.704919 21.139029 360.704919ZM80.119424 301.724527 80.119424 242.744134 139.099819 242.744134 139.099819 301.724527 80.119424 301.724527 80.119424 301.724527ZM21.139029 183.763742 21.139029 65.802957 80.119424 65.802957 80.119424 124.783349 139.099819 124.783349 139.099819 183.763742 21.139029 183.763742 21.139029 183.763742ZM139.099819 65.802957 257.060608 65.802957 257.060608 124.783349 139.099819 124.783349 139.099819 65.802957 139.099819 65.802957ZM787.884117 360.704919 787.884117 419.68531 728.903744 419.68531 728.903744 360.704919 787.884117 360.704919 787.884117 360.704919ZM375.021376 65.802957 316.040981 65.802957 316.040981 6.822566 375.021376 6.822566 375.021376 65.802957 375.021376 65.802957ZM316.040981 6.822566 21.139029 6.822566 21.139029-111.138219 80.119424-111.138219 80.119424-52.157826 139.099819-52.157826 139.099819-111.138219 198.080213-111.138219 198.080213-52.157826 257.060608-52.157826 257.060608-111.138219 434.001771-111.138219 434.001771-52.157826 316.040981-52.157826 316.040981 6.822566 316.040981 6.822566ZM551.96256-111.138219 551.96256-52.157826 492.982165-52.157826 492.982165-111.138219 551.96256-111.138219 551.96256-111.138219ZM610.942955-111.138219 669.923349-111.138219 669.923349-52.157826 610.942955-52.157826 610.942955-111.138219 610.942955-111.138219ZM610.942955 301.724527 728.903744 301.724527 728.903744 360.704919 669.923349 360.704919 669.923349 419.68531 610.942955 419.68531 610.942955 360.704919 551.96256 360.704919 551.96256 183.763742 669.923349 183.763742 669.923349 242.744134 610.942955 242.744134 610.942955 301.724527 610.942955 301.724527ZM434.001771-52.157826 492.982165-52.157826 492.982165 6.822566 434.001771 6.822566 434.001771-52.157826 434.001771-52.157826ZM316.040981 183.763742 257.060608 183.763742 257.060608 124.783349 375.021376 124.783349 375.021376 242.744134 316.040981 242.744134 316.040981 183.763742 316.040981 183.763742ZM257.060608 360.704919 198.080213 360.704919 198.080213 419.68531 139.099819 419.68531 139.099819 301.724527 198.080213 301.724527 198.080213 242.744134 139.099819 242.744134 139.099819 183.763742 257.060608 183.763742 257.060608 360.704919 257.060608 360.704919ZM492.982165 65.802957 492.982165 6.822566 551.96256 6.822566 551.96256 65.802957 610.942955 65.802957 610.942955 6.822566 669.923349 6.822566 669.923349 124.783349 492.982165 124.783349 492.982165 242.744134 434.001771 242.744134 434.001771 65.802957 492.982165 65.802957 492.982165 65.802957ZM316.040981 301.724527 375.021376 301.724527 375.021376 242.744134 434.001771 242.744134 434.001771 301.724527 492.982165 301.724527 492.982165 360.704919 316.040981 360.704919 316.040981 301.724527 316.040981 301.724527ZM434.001771 419.68531 492.982165 419.68531 492.982165 478.665702 434.001771 478.665702 434.001771 419.68531 434.001771 419.68531ZM492.982165 419.68531 492.982165 360.704919 551.96256 360.704919 551.96256 419.68531 492.982165 419.68531 492.982165 419.68531ZM728.903744 419.68531 728.903744 478.665702 669.923349 478.665702 669.923349 419.68531 728.903744 419.68531 728.903744 419.68531ZM787.884117 537.646095 728.903744 537.646095 728.903744 478.665702 787.884117 478.665702 787.884117 537.646095 787.884117 537.646095ZM846.864512 537.646095 846.864512 419.68531 905.844907 419.68531 905.844907 537.646095 846.864512 537.646095 846.864512 537.646095ZM846.864512 301.724527 846.864512 242.744134 905.844907 242.744134 905.844907 301.724527 964.825301 301.724527 964.825301 360.704919 1023.805696 360.704919 1023.805696 478.665702 964.825301 478.665702 964.825301 419.68531 905.844907 419.68531 905.844907 360.704919 787.884117 360.704919 787.884117 301.724527 846.864512 301.724527 846.864512 301.724527ZM728.903744 242.744134 787.884117 242.744134 787.884117 301.724527 728.903744 301.724527 728.903744 242.744134 728.903744 242.744134ZM1023.805696 242.744134 1023.805696 301.724527 964.825301 301.724527 964.825301 242.744134 1023.805696 242.744134 1023.805696 242.744134Z"  horiz-adv-x="1024" />

    
    <glyph glyph-name="leftmenu_blood" unicode="&#58926;" d="M460.8 896c48.128-41.7792 104.209067-100.2496 159.1296-166.980267-13.892267-18.944-27.306667-38.434133-39.867733-58.0608a1474.628267 1474.628267 0 0 1-113.322667 126.464l-5.597867 5.4272-4.5056-4.437333C288.324267 630.442667 119.466667 367.03573300000005 119.466667 234.01813300000003 119.466667 73.79626699999994 270.5408-59.733333000000016 460.8-59.733333000000016c182.749867 0 329.352533 123.1872 340.650667 274.875733a300.032 300.032 0 0 1 55.739733 11.3664l13.175467 4.4032-0.1024-6.2464C864.6656 29.08159999999998 683.485867-128 460.8-128 234.5984-128 51.2 34.065067 51.2 234.01813300000003 51.2 427.52 298.427733 749.1584 452.881067 888.9344L460.8 896z m0-477.866667a34.133333 34.133333 0 0 0 34.133333-34.133333v-102.4h102.4a34.133333 34.133333 0 0 0 0-68.266667h-102.4v-102.4a34.133333 34.133333 0 0 0-68.266666 0v102.4H324.266667a34.133333 34.133333 0 0 0 0 68.266667h102.4v102.4a34.133333 34.133333 0 0 0 34.133333 34.133333z m305.083733 364.885334c80.384-65.092267 204.8-217.088 204.8-308.9408 0-93.320533-91.682133-168.96-204.8-168.96s-204.8 75.639467-204.8 168.96c0 89.361067 121.070933 237.329067 198.4512 303.581866l6.3488 5.3248z m0.3072-92.637867l-3.1744-3.242667c-69.256533-71.7824-133.666133-169.301333-133.666133-213.060266 0-52.394667 58.538667-100.693333 136.533333-100.693334s136.533333 48.298667 136.533334 100.693334c0 43.076267-59.221333 135.031467-125.815467 205.482666l-10.410667 10.820267z"  horiz-adv-x="1024" />

    
    <glyph glyph-name="leftmenu_hair" unicode="&#58927;" d="M512 896c282.770286 0 512-229.229714 512-512s-229.229714-512-512-512S0 101.22971399999994 0 384C0 618.861714 158.134857 816.822857 373.76 877.129143L373.833143 877.714286l1.462857-0.182857A512.512 512.512 0 0 0 512 896z m-79.835429-307.785143c-81.298286-92.196571-190.061714-139.410286-350.208-116.516571C76.178286 443.392 73.142857 414.061714 73.142857 384c0-242.358857 196.498286-438.857143 438.857143-438.857143 210.358857 0 386.157714 148.004571 428.909714 345.6-224.475429 24.137143-414.610286 140.544-508.745143 297.472zM512 822.857143c-23.771429 0-47.104-1.901714-69.851429-5.522286a199.314286 199.314286 0 0 1-0.146285-7.899428c0-220.050286 220.745143-415.890286 508.342857-446.171429a443.757714 443.757714 0 0 1-2.084572 68.717714l9.984-1.024c-248.832 23.369143-443.099429 182.601143-443.099428 368.091429a321.828571 321.828571 0 0 0 0.877714 23.771428A127.561143 127.561143 0 0 1 512 822.857143z m76.946286-6.729143l-0.365715-4.754286a249.307429 249.307429 0 0 1-0.292571-12.324571c0-135.314286 146.102857-261.778286 344.868571-291.401143a429.312 429.312 0 0 1-27.062857 69.705143 191.634286 191.634286 0 0 0-241.554285 218.258286 432.932571 432.932571 0 0 1-75.593143 20.516571z m-219.940572-17.115429l-5.741714-2.011428A440.173714 440.173714 0 0 1 102.765714 542.756571l-11.190857 1.462858c146.505143-21.138286 236.397714 25.197714 305.298286 116.406857a414.500571 414.500571 0 0 0-27.794286 138.386285z m365.641143-36.754285l-0.073143-0.877715A118.491429 118.491429 0 0 1 865.755429 643.657143a440.466286 440.466286 0 0 1-131.108572 118.564571z"  horiz-adv-x="1024" />

    
    <glyph glyph-name="leftmenu_shit" unicode="&#58928;" d="M888.448 865.194667A82.432 82.432 0 0 0 938.666667 789.333333V554.666667c0-31.573333-8.533333-61.098667-23.466667-86.442667A170.624 170.624 0 0 0 1043.84 213.33333300000004H1109.333333a170.666667 170.666667 0 1 0 0-341.333333H170.666667a170.666667 170.666667 0 1 0 0 341.333333h65.493333a170.666667 170.666667 0 0 0 128.64 254.933334A170.666667 170.666667 0 0 0 512 725.333333h227.541333l40.832 96.170667A82.432 82.432 0 0 0 888.448 865.194667zM1109.333333 128H170.666667a85.333333 85.333333 0 0 1-6.4-170.453333L170.666667-42.66666699999996h938.666666a85.333333 85.333333 0 0 1 6.4 170.453334L1109.333333 128z m-213.333333 256H384a85.333333 85.333333 0 0 1-6.4-170.453333L384 213.33333300000004h512a85.333333 85.333333 0 0 1 6.4 170.453334L896 384z m-42.666667 391.125333L796.032 640H512a85.333333 85.333333 0 0 1-6.4-170.453333L512 469.333333h256a85.333333 85.333333 0 0 1 85.12 78.933334L853.333333 554.666667V775.125333z"  horiz-adv-x="1280" />

    
    <glyph glyph-name="leftmenu_pit" unicode="&#58929;" d="M802.149899 418.132969l18.363721-29.38878C864.613858 316.89356999999995 972.816452 132.43715999999995 972.816452 52.87241300000005c0-97.279935-72.499152-176.708149-163.464424-180.701746L802.149899-128c-94.207937 0-170.666553 80.998346-170.666553 180.906546 0 75.025017 96.255936 243.370504 144.213238 322.559785L802.149899 418.132969z m-0.034133-132.266578l-2.457598-4.334931c-9.420794-16.554656-18.602654-33.109311-27.374915-49.561567l-10.444793-19.79732C723.131285 137.318223 699.749968 77.414263 699.749968 52.90654600000005c0-63.044225 46.762635-112.639925 102.399931-112.639925s102.399932 49.561567 102.399932 112.639925c0 20.582386-17.885855 70.451153-49.117834 133.631911a1636.726376 1636.726376 0 0 1-27.989314 53.930631l-13.789858 25.122116-11.537059 20.275187zM816.48589 895.999317a121.173253 121.173253 0 0 0 86.323142-35.771709c45.875169-45.909303 47.889035-120.695386 5.290663-168.618554l-4.915196-5.25653L785.083244 568.183003l-1.706665-6.109863c15.15519-15.189323 16.145056-39.253307 3.037864-55.56903l-3.037864-3.345064-48.742368-48.742368a40.959973 40.959973 0 0 0-24.95145-11.605325l-4.64213-0.2048a42.120505 42.120505 0 0 0-26.009583 8.874661l-3.310931 2.935464-15.018657 14.301858-335.803509-335.80351c-44.509837-44.509837-67.993555-55.022897-92.194072-60.62076l-12.287992-2.696531c-16.588789-4.164264-35.225577-14.199457-75.878349-54.85223-3.071998-3.071998-10.649593-5.324796-15.87199-6.007463L125.832484 8.533241999999973c-3.993597 0-11.741859 1.774932-16.315723 4.471464l-2.321065 1.740799L57.429329 64.51187200000004C53.947732 68.027603 51.217067 78.16519600000004 51.217067 83.14865899999995c0 4.94933 2.730665 15.15519 6.212262 18.670921l10.71786 10.92266c27.750381 29.081581 33.996777 42.018105 37.102908 54.613296l1.945599 9.079461c5.119997 25.66825 18.090655 53.794097 61.303426 98.508734l7.099728 7.202129 335.80351 335.803509-14.335991 15.15519a41.369572 41.369572 0 0 0-12.219725 29.422914c0 9.557327 3.174398 18.636788 9.045328 25.975449l3.174397 3.549865 48.708235 48.708234c6.997329 6.997329 15.871989 10.990926 25.019716 11.946659l4.607997 0.238933c9.181861-0.034133 18.363721-3.071998 25.941316-9.147728l3.345065-3.037864 6.212262 1.570132 118.169521 118.135388A123.323651 123.323651 0 0 0 808.976561 895.760384L816.48589 895.999317z m0-68.266621c-13.209591 0-25.804783-4.43733-35.293843-12.049058l-3.857064-3.481598-131.515646-131.515646-59.733294-14.95039-9.932793 8.908794-12.526925-12.526925 43.076238-45.397303L224.272951 234.25682500000005l-6.690129-6.792529c-28.262381-29.218114-38.809574-45.943436-42.700771-61.201026l-2.389332-11.366392-0.614399-2.559998c-2.901331-12.117325-7.099729-23.210651-13.414391-34.577044l-1.877333-3.140264 1.194666 0.750932c16.179189 10.444793 31.402646 16.895989 47.923168 20.889586l6.246396 1.365333c18.193055 3.652264 28.535448 8.703994 53.418631 32.529045l11.195726 10.990926L659.472661 564.018739l45.226637-42.973838 11.605325 11.605325-9.28426 9.352527 17.066655 61.747159 129.467647 129.433514 3.549864 3.754664c18.705054 21.026119 17.681055 54.783963-2.559998 75.025017A52.906631 52.906631 0 0 1 816.48589 827.732696z"  horiz-adv-x="1024" />

    
    <glyph glyph-name="fold_line" unicode="&#58924;" d="M1088 0a64 64 0 0 0 0-128H64a64 64 0 0 0 0 128h1024zM310.016 576C315.52 576 320 571.52 320 566.016v-375.424a9.984 9.984 0 0 0-16.576-7.552L96.96 362.944a19.968 19.968 0 0 0 0 30.144l206.464 180.48A9.984 9.984 0 0 0 310.016 576zM1088 448a64 64 0 0 0 0-128H512a64 64 0 0 0 0 128h576z m0 448a64 64 0 0 0 0-128H64a64 64 0 1 0 0 128h1024z"  horiz-adv-x="1152" />

    
    <glyph glyph-name="unfold_line" unicode="&#58925;" d="M1088 0a64 64 0 0 0 0-128H64a64 64 0 0 0 0 128h1024zM73.984 576c2.432 0 4.8-0.896 6.592-2.496l206.464-180.416a19.968 19.968 0 0 0 0-30.08L80.576 183.04A9.984 9.984 0 0 0 64 190.592V566.016C64 571.52 68.48 576 73.984 576zM1088 448a64 64 0 0 0 0-128H512a64 64 0 0 0 0 128h576z m0 448a64 64 0 0 0 0-128H64a64 64 0 1 0 0 128h1024z"  horiz-adv-x="1152" />

    
    <glyph glyph-name="sucess_fill" unicode="&#58921;" d="M512 896c282.7648 0 512-229.2352 512-512S794.7648-128 512-128 0 101.2352 0 384 229.2352 896 512 896z m250.048-312.96c-15.488 15.488-36.1216-5.1584-36.1216-5.1584l-299.776-278.6048-118.656 98.0224h0.512c-20.6336 15.488-36.1088 10.3168-41.28 5.1584-20.6336-15.4752-5.1584-41.2672-5.1584-41.2672L400.896 180.608a32 32 0 0 1 51.584 0l309.5808 366.3232c10.3168 20.6336 5.1584 30.9504 0 36.1088z"  horiz-adv-x="1024" />

    
    <glyph glyph-name="nocertify_down_fill" unicode="&#58923;" d="M1249.344 255.74400000000003c25.6 0 40.064-31.552 24.576-53.44l-225.088-317.44a30.144 30.144 0 0 0-24.512-13.12 30.144 30.144 0 0 0-24.512 13.056l-225.088 317.44c-15.552 21.952-1.088 53.504 24.512 53.504h450.176zM181.76 724.48L329.664 581.76a24.96 24.96 0 0 0 6.784-25.152 167.872 167.872 0 0 1-7.232-48.512c0-97.28 82.048-176.384 182.848-176.384 17.472 0 34.368 2.56 50.368 7.04a27.072 27.072 0 0 0 26.048-6.592l126.784-122.24c12.8-12.352 9.344-33.088-6.784-41.024-60.544-29.76-126.848-48.768-196.416-48.768-281.984 0-512 311.872-512 387.968 0 37.12 54.976 130.56 144 216.448a27.328 27.328 0 0 0 37.632-0.064zM512.064 896c281.984 0 512-311.872 512-387.904 0-37.12-54.976-130.56-144-216.448a27.264 27.264 0 0 0-37.632 0l-147.968 142.72a24.96 24.96 0 0 0-6.784 25.152c4.672 15.424 7.232 31.68 7.232 48.576 0 97.216-82.048 176.32-182.848 176.32a186.24 186.24 0 0 1-50.368-7.04 27.136 27.136 0 0 0-26.048 6.592l-126.784 122.24A25.216 25.216 0 0 0 315.584 847.232C376.192 876.992 442.496 896 512.064 896z"  horiz-adv-x="1280" />

    
    <glyph glyph-name="difsmple_fill" unicode="&#58919;" d="M650.020571 603.4285709999999c47.177143 0 83.894857-36.717714 81.261715-81.261714v-568.905143c0-44.617143-36.717714-81.261714-81.188572-81.261714H81.188571C36.571429-128 0-91.282286 0-46.738286000000016V522.24C0 566.784 36.717714 603.4285709999999 81.188571 603.4285709999999z m430.738286 292.571429c48.64 0 87.186286-35.474286 89.453714-80.310857l-0.073142-634.88a89.965714 89.965714 0 0 0-80.310858-88.941714l-9.069714-0.438858h-203.190857V662.089143c-1.755429 48.932571-33.28 87.625143-73.142857 87.625143H365.714286v56.905143A89.965714 89.965714 0 0 0 446.025143 895.561143L455.094857 896h625.664z"  horiz-adv-x="1170" />

    
    <glyph glyph-name="nocertify_fill" unicode="&#58920;" d="M217.9072 143.90613299999995l177.629867 177.629867a31.812267 31.812267 0 0 1 8.123733 31.266133 215.927467 215.927467 0 0 0-8.669867 60.416A219.682133 219.682133 0 0 0 614.4 632.695467c20.957867 0 41.233067-3.140267 60.416-8.669867a31.744 31.744 0 0 1 31.266133 8.123733l152.1664 152.098134a31.9488 31.9488 0 0 1-8.192 51.063466C777.4208 872.311467 697.821867 896 614.4 896 276.002133 896 0 507.904 0 413.218133c0-46.216533 65.9456-162.474667 172.8512-269.312a31.880533 31.880533 0 0 1 45.056 0z m792.917333 538.624l-177.5616-177.5616a31.812267 31.812267 0 0 1-8.192-31.3344c5.666133-19.182933 8.738133-39.458133 8.738134-60.416A219.682133 219.682133 0 0 0 614.4 193.80906700000003c-21.026133 0-41.233067 3.072-60.416 8.669866a31.675733 31.675733 0 0 1-31.3344-8.123733l-152.098133-152.1664a31.9488 31.9488 0 0 1 8.192-51.063467c72.635733-37.000533 152.234667-60.6208 235.656533-60.6208 338.397867 0 614.4 388.096 614.4 482.7136 0 46.2848-65.9456 162.474667-172.8512 269.380267a31.9488 31.9488 0 0 1-45.056 0z"  horiz-adv-x="1228" />

    
    <glyph glyph-name="right-flag-1" unicode="&#58880;" d="M136.5169916 9.803482329999952l754.09263994 1e-8 0 751.80759908z"  horiz-adv-x="1024" />

    
    <glyph glyph-name="saomiao" unicode="&#59058;" d="M1057.938286 344.649143H39.204571A39.277714 39.277714 0 0 0 0 384c0 21.723429 17.554286 39.350857 39.204571 39.350857h1018.733715c14.043429 0 26.989714-7.460571 33.938285-19.675428a39.497143 39.497143 0 0 0-33.938285-59.026286zM940.397714-128H705.316571a39.277714 39.277714 0 0 0-39.204571 39.350857c0 21.796571 17.554286 39.424 39.204571 39.424h235.081143a39.277714 39.277714 0 0 1 39.204572 39.350857V187.099429a39.277714 39.277714 0 0 0 78.336 0v-196.973715c0-65.170286-52.662857-118.052571-117.540572-118.125714z m-587.776 0H156.745143a117.979429 117.979429 0 0 0-117.540572 118.125714V187.099429c0 14.043429 7.460571 27.062857 19.602286 34.084571a38.985143 38.985143 0 0 0 58.733714-34.084571v-196.973715c0-21.723429 17.554286-39.350857 39.204572-39.350857H352.548571a39.497143 39.497143 0 0 0 0-78.774857z m-274.285714 669.549714a39.277714 39.277714 0 0 0-39.131429 39.350857V777.874286C39.204571 842.971429 91.867429 896 156.745143 896H352.548571a39.277714 39.277714 0 1 0 0-78.774857H156.745143a39.350857 39.350857 0 0 1-39.204572-39.350857v-196.973715c0-21.723429-17.554286-39.350857-39.204571-39.350857z m940.470857 0a39.277714 39.277714 0 0 0-39.204571 39.350857V777.874286a39.350857 39.350857 0 0 1-39.204572 39.350857H705.316571a39.497143 39.497143 0 0 0 0 78.774857h235.081143c64.804571 0 117.540571-53.028571 117.540572-118.125714v-196.973715c0-21.723429-17.554286-39.350857-39.131429-39.350857z"  horiz-adv-x="1097" />

    
    <glyph glyph-name="yonghuming" unicode="&#58902;" d="M631.1936 270.6944C876.544 229.1712 947.2 48.64 947.2-16.9472 947.2-106.6496 647.5264-128 512-128 376.4736-128 76.8-106.6496 76.8-16.896c0 64.4096 69.7344 248.4224 315.0336 287.488 15.7184 2.5088 36.352 54.6816 22.9376 64.256-80.384 57.2928-142.1824 156.4672-142.1824 316.416C272.5888 787.6608 372.0192 896 512 896s239.4112-108.3904 239.4112-244.736c0-157.5936-65.024-259.1232-145.664-317.0304-12.4928-8.96 10.0864-60.928 25.4464-63.5392z"  horiz-adv-x="1024" />

    
    <glyph glyph-name="mima" unicode="&#58903;" d="M893.736421-107.52H130.263579C88.064-107.52 53.894737-78.147368 53.894737-41.984v491.52c0 36.217263 34.169263 65.536 76.368842 65.536h763.472842c42.199579 0 76.368842-29.318737 76.368842-65.536v-491.52c0-36.163368-34.169263-65.536-76.368842-65.536zM512 351.232c-63.272421 0-114.526316-43.978105-114.526316-98.304 0-36.271158 23.174737-67.637895 57.290105-84.614737v-93.561263c0-28.240842 25.6-51.2 57.236211-51.2 31.636211 0 57.290105 22.959158 57.290105 51.2v93.507368c34.061474 17.030737 57.236211 48.397474 57.236211 84.668632 0 54.272-51.253895 98.304-114.526316 98.304z m0 425.984c-126.490947 0-229.052632-88.010105-229.052632-196.608H168.421053C168.421053 743.477895 322.236632 875.52 512 875.52c189.709474 0 343.578947-132.042105 343.578947-294.912H741.052632c0 108.597895-102.561684 196.608-229.052632 196.608z"  horiz-adv-x="1024" />

    


  </font>
</defs>
</svg>
